<svg width="25" height="26" viewBox="0 0 25 26" fill="none" xmlns="http://www.w3.org/2000/svg">
<path d="M7.6048 0.25H17.3698C21.0898 0.25 24.1123 3.5 24.1123 7.5V18C24.1123 19.9228 23.4019 21.7669 22.1375 23.1265C20.873 24.4862 19.158 25.25 17.3698 25.25H7.6048C3.8848 25.25 0.862305 22 0.862305 18V7.5C0.862305 5.57718 1.57267 3.73311 2.83714 2.37348C4.1016 1.01384 5.81658 0.25 7.6048 0.25ZM7.3723 2.75C6.26237 2.75 5.1979 3.22411 4.41306 4.06802C3.62822 4.91193 3.1873 6.05653 3.1873 7.25V18.25C3.1873 20.7375 5.05893 22.75 7.3723 22.75H17.6023C18.7122 22.75 19.7767 22.2759 20.5615 21.432C21.3464 20.5881 21.7873 19.4435 21.7873 18.25V7.25C21.7873 4.7625 19.9157 2.75 17.6023 2.75H7.3723ZM18.5904 4.625C18.9758 4.625 19.3454 4.78962 19.6179 5.08265C19.8905 5.37567 20.0436 5.7731 20.0436 6.1875C20.0436 6.6019 19.8905 6.99933 19.6179 7.29235C19.3454 7.58538 18.9758 7.75 18.5904 7.75C18.205 7.75 17.8354 7.58538 17.5629 7.29235C17.2904 6.99933 17.1373 6.6019 17.1373 6.1875C17.1373 5.7731 17.2904 5.37567 17.5629 5.08265C17.8354 4.78962 18.205 4.625 18.5904 4.625ZM12.4873 6.5C14.0289 6.5 15.5073 7.15848 16.5974 8.33058C17.6874 9.50268 18.2998 11.0924 18.2998 12.75C18.2998 14.4076 17.6874 15.9973 16.5974 17.1694C15.5073 18.3415 14.0289 19 12.4873 19C10.9457 19 9.4673 18.3415 8.37725 17.1694C7.28719 15.9973 6.6748 14.4076 6.6748 12.75C6.6748 11.0924 7.28719 9.50268 8.37725 8.33058C9.4673 7.15848 10.9457 6.5 12.4873 6.5ZM12.4873 9C11.5624 9 10.6753 9.39509 10.0213 10.0983C9.36724 10.8016 8.9998 11.7554 8.9998 12.75C8.9998 13.7446 9.36724 14.6984 10.0213 15.4017C10.6753 16.1049 11.5624 16.5 12.4873 16.5C13.4122 16.5 14.2993 16.1049 14.9533 15.4017C15.6074 14.6984 15.9748 13.7446 15.9748 12.75C15.9748 11.7554 15.6074 10.8016 14.9533 10.0983C14.2993 9.39509 13.4122 9 12.4873 9Z" fill="white"/>
</svg>
